<svg width="12" height="99" viewBox="0 0 12 99" fill="none" xmlns="http://www.w3.org/2000/svg">
<path d="M6 0.666667C3.05448 0.666666 0.666667 3.05448 0.666667 6C0.666666 8.94552 3.05448 11.3333 6 11.3333C8.94552 11.3333 11.3333 8.94552 11.3333 6C11.3333 3.05448 8.94552 0.666667 6 0.666667ZM6 87.6667C3.05448 87.6667 0.666663 90.0545 0.666663 93C0.666663 95.9455 3.05448 98.3333 6 98.3333C8.94551 98.3333 11.3333 95.9455 11.3333 93C11.3333 90.0545 8.94552 87.6667 6 87.6667ZM5 6L5 93L7 93L7 6L5 6Z" fill="black"/>
</svg>
